<svg xmlns:xlink="http://www.w3.org/1999/xlink" width="24.402ex" height="13.843ex" style="font-size: 15px; vertical-align: -6.338ex;" viewBox="0 -3231.2 10506.4 5960" role="img" focusable="false" xmlns="http://www.w3.org/2000/svg">
<defs>
<path stroke-width="1" id="E1-MJMATHI-57" d="M436 683Q450 683 486 682T553 680Q604 680 638 681T677 682Q695 682 695 674Q695 670 692 659Q687 641 683 639T661 637Q636 636 621 632T600 624T597 615Q597 603 613 377T629 138L631 141Q633 144 637 151T649 170T666 200T690 241T720 295T759 362Q863 546 877 572T892 604Q892 619 873 628T831 637Q817 637 817 647Q817 650 819 660Q823 676 825 679T839 682Q842 682 856 682T895 682T949 681Q1015 681 1034 683Q1048 683 1048 672Q1048 666 1045 655T1038 640T1028 637Q1006 637 988 631T958 617T939 600T927 584L923 578L754 282Q586 -14 585 -15Q579 -22 561 -22Q546 -22 542 -17Q539 -14 523 229T506 480L494 462Q472 425 366 239Q222 -13 220 -15T215 -19Q210 -22 197 -22Q178 -22 176 -15Q176 -12 154 304T131 622Q129 631 121 633T82 637H58Q51 644 51 648Q52 671 64 683H76Q118 680 176 680Q301 680 313 683H323Q329 677 329 674T327 656Q322 641 318 637H297Q236 634 232 620Q262 160 266 136L501 550L499 587Q496 629 489 632Q483 636 447 637Q428 637 422 639T416 648Q416 650 418 660Q419 664 420 669T421 676T424 680T428 682T436 683Z"></path>
<path stroke-width="1" id="E1-MJMAIN-3A" d="M78 370Q78 394 95 412T138 430Q162 430 180 414T199 371Q199 346 182 328T139 310T96 327T78 370ZM78 60Q78 84 95 102T138 120Q162 120 180 104T199 61Q199 36 182 18T139 0T96 17T78 60Z"></path>
<path stroke-width="1" id="E1-MJMAIN-3D" d="M56 347Q56 360 70 367H707Q722 359 722 347Q722 336 708 328L390 327H72Q56 332 56 347ZM56 153Q56 168 72 173H708Q722 163 722 153Q722 140 707 133H70Q56 140 56 153Z"></path>
<path stroke-width="1" id="E1-MJMAIN-2212" d="M84 237T84 250T98 270H679Q694 262 694 250T679 230H98Q84 237 84 250Z"></path>
<path stroke-width="1" id="E1-MJMATHI-3B1" d="M34 156Q34 270 120 356T309 442Q379 442 421 402T478 304Q484 275 485 237V208Q534 282 560 374Q564 388 566 390T582 393Q603 393 603 385Q603 376 594 346T558 261T497 161L486 147L487 123Q489 67 495 47T514 26Q528 28 540 37T557 60Q559 67 562 68T577 70Q597 70 597 62Q597 56 591 43Q579 19 556 5T512 -10H505Q438 -10 414 62L411 69L400 61Q390 53 370 41T325 18T267 -2T203 -11Q124 -11 79 39T34 156ZM208 26Q257 26 306 47T379 90L403 112Q401 255 396 290Q382 405 304 405Q235 405 183 332Q156 292 139 224T121 120Q121 71 146 49T208 26Z"></path>
<path stroke-width="1" id="E1-MJMATHI-76" d="M173 380Q173 405 154 405Q130 405 104 376T61 287Q60 286 59 284T58 281T56 279T53 278T49 278T41 278H27Q21 284 21 287Q21 294 29 316T53 368T97 419T160 441Q202 441 225 417T249 361Q249 344 246 335Q246 329 231 291T200 202T182 113Q182 86 187 69Q200 26 250 26Q287 26 319 60T369 139T398 222T409 277Q409 300 401 317T383 343T365 361T357 383Q357 405 376 424T417 443Q436 443 451 425T467 367Q467 340 455 284T418 159T347 40T241 -11Q177 -11 139 22Q102 54 102 117Q102 148 110 181T151 298Q173 362 173 380Z"></path>
<path stroke-width="1" id="E1-MJMAIN-63" d="M370 305T349 305T313 320T297 358Q297 381 312 396Q317 401 317 402T307 404Q281 408 258 408Q209 408 178 376Q131 329 131 219Q131 137 162 90Q203 29 272 29Q313 29 338 55T374 117Q376 125 379 127T395 129H409Q415 123 415 120Q415 116 411 104T395 71T366 33T318 2T249 -11Q163 -11 99 53T34 214Q34 318 99 383T250 448T370 421T404 357Q404 334 387 320Z"></path>
<path stroke-width="1" id="E1-MJMAIN-6F" d="M28 214Q28 309 93 378T250 448Q340 448 405 380T471 215Q471 120 407 55T250 -10Q153 -10 91 57T28 214ZM250 30Q372 30 372 193V225V250Q372 272 371 288T364 326T348 362T317 390T268 410Q263 411 252 411Q222 411 195 399Q152 377 139 338T126 246V226Q126 130 145 91Q177 30 250 30Z"></path>
<path stroke-width="1" id="E1-MJMAIN-72" d="M36 46H50Q89 46 97 60V68Q97 77 97 91T98 122T98 161T98 203Q98 234 98 269T98 328L97 351Q94 370 83 376T38 385H20V408Q20 431 22 431L32 432Q42 433 60 434T96 436Q112 437 131 438T160 441T171 442H174V373Q213 441 271 441H277Q322 441 343 419T364 373Q364 352 351 337T313 322Q288 322 276 338T263 372Q263 381 265 388T270 400T273 405Q271 407 250 401Q234 393 226 386Q179 341 179 207V154Q179 141 179 127T179 101T180 81T180 66V61Q181 59 183 57T188 54T193 51T200 49T207 48T216 47T225 47T235 46T245 46H276V0H267Q249 3 140 3Q37 3 28 0H20V46H36Z"></path>
<path stroke-width="1" id="E1-MJMAIN-65" d="M28 218Q28 273 48 318T98 391T163 433T229 448Q282 448 320 430T378 380T406 316T415 245Q415 238 408 231H126V216Q126 68 226 36Q246 30 270 30Q312 30 342 62Q359 79 369 104L379 128Q382 131 395 131H398Q415 131 415 121Q415 117 412 108Q393 53 349 21T250 -11Q155 -11 92 58T28 218ZM333 275Q322 403 238 411H236Q228 411 220 410T195 402T166 381T143 340T127 274V267H333V275Z"></path>
<path stroke-width="1" id="E1-MJMAIN-74" d="M27 422Q80 426 109 478T141 600V615H181V431H316V385H181V241Q182 116 182 100T189 68Q203 29 238 29Q282 29 292 100Q293 108 293 146V181H333V146V134Q333 57 291 17Q264 -10 221 -10Q187 -10 162 2T124 33T105 68T98 100Q97 107 97 248V385H18V422H27Z"></path>
<path stroke-width="1" id="E1-MJMAIN-64" d="M376 495Q376 511 376 535T377 568Q377 613 367 624T316 637H298V660Q298 683 300 683L310 684Q320 685 339 686T376 688Q393 689 413 690T443 693T454 694H457V390Q457 84 458 81Q461 61 472 55T517 46H535V0Q533 0 459 -5T380 -11H373V44L365 37Q307 -11 235 -11Q158 -11 96 50T34 215Q34 315 97 378T244 442Q319 442 376 393V495ZM373 342Q328 405 260 405Q211 405 173 369Q146 341 139 305T131 211Q131 155 138 120T173 59Q203 26 251 26Q322 26 373 103V342Z"></path>
<path stroke-width="1" id="E1-MJMATHI-64" d="M366 683Q367 683 438 688T511 694Q523 694 523 686Q523 679 450 384T375 83T374 68Q374 26 402 26Q411 27 422 35Q443 55 463 131Q469 151 473 152Q475 153 483 153H487H491Q506 153 506 145Q506 140 503 129Q490 79 473 48T445 8T417 -8Q409 -10 393 -10Q359 -10 336 5T306 36L300 51Q299 52 296 50Q294 48 292 46Q233 -10 172 -10Q117 -10 75 30T33 157Q33 205 53 255T101 341Q148 398 195 420T280 442Q336 442 364 400Q369 394 369 396Q370 400 396 505T424 616Q424 629 417 632T378 637H357Q351 643 351 645T353 664Q358 683 366 683ZM352 326Q329 405 277 405Q242 405 210 374T160 293Q131 214 119 129Q119 126 119 118T118 106Q118 61 136 44T179 26Q233 26 290 98L298 109L352 326Z"></path>
<path stroke-width="1" id="E1-MJMATHI-73" d="M131 289Q131 321 147 354T203 415T300 442Q362 442 390 415T419 355Q419 323 402 308T364 292Q351 292 340 300T328 326Q328 342 337 354T354 372T367 378Q368 378 368 379Q368 382 361 388T336 399T297 405Q249 405 227 379T204 326Q204 301 223 291T278 274T330 259Q396 230 396 163Q396 135 385 107T352 51T289 7T195 -10Q118 -10 86 19T53 87Q53 126 74 143T118 160Q133 160 146 151T160 120Q160 94 142 76T111 58Q109 57 108 57T107 55Q108 52 115 47T146 34T201 27Q237 27 263 38T301 66T318 97T323 122Q323 150 302 164T254 181T195 196T148 231Q131 256 131 289Z"></path>
<path stroke-width="1" id="E1-MJSZ2-221A" d="M1001 1150Q1017 1150 1020 1132Q1020 1127 741 244L460 -643Q453 -650 436 -650H424Q423 -647 423 -645T421 -640T419 -631T415 -617T408 -594T399 -560T385 -512T367 -448T343 -364T312 -259L203 119L138 41L111 67L212 188L264 248L472 -474L983 1140Q988 1150 1001 1150Z"></path>
<path stroke-width="1" id="E1-MJMAIN-2B" d="M56 237T56 250T70 270H369V420L370 570Q380 583 389 583Q402 583 409 568V270H707Q722 262 722 250T707 230H409V-68Q401 -82 391 -82H389H387Q375 -82 369 -68V230H70Q56 237 56 250Z"></path>
<path stroke-width="1" id="E1-MJMATHI-3F5" d="M227 -11Q149 -11 95 41T40 174Q40 262 87 322Q121 367 173 396T287 430Q289 431 329 431H367Q382 426 382 411Q382 385 341 385H325H312Q191 385 154 277L150 265H327Q340 256 340 246Q340 228 320 219H138V217Q128 187 128 143Q128 77 160 52T231 26Q258 26 284 36T326 57T343 68Q350 68 354 58T358 39Q358 36 357 35Q354 31 337 21T289 0T227 -11Z"></path>
<path stroke-width="1" id="E1-MJMATHI-62" d="M73 647Q73 657 77 670T89 683Q90 683 161 688T234 694Q246 694 246 685T212 542Q204 508 195 472T180 418L176 399Q176 396 182 402Q231 442 283 442Q345 442 383 396T422 280Q422 169 343 79T173 -11Q123 -11 82 27T40 150V159Q40 180 48 217T97 414Q147 611 147 623T109 637Q104 637 101 637H96Q86 637 83 637T76 640T73 647ZM336 325V331Q336 405 275 405Q258 405 240 397T207 376T181 352T163 330L157 322L136 236Q114 150 114 114Q114 66 138 42Q154 26 178 26Q211 26 245 58Q270 81 285 114T318 219Q336 291 336 325Z"></path>
</defs>
<g stroke="currentColor" fill="currentColor" stroke-width="0" transform="matrix(1 0 0 -1 0 0)">
<g transform="translate(167,0)">
<g transform="translate(-11,0)">
<g transform="translate(0,1708)">
 <use xlink:href="#E1-MJMATHI-57" x="0" y="0"></use>
<g transform="translate(1326,0)">
 <use xlink:href="#E1-MJMAIN-3A"></use>
 <use xlink:href="#E1-MJMAIN-3D" x="278" y="0"></use>
</g>
 <use xlink:href="#E1-MJMATHI-57" x="2661" y="0"></use>
 <use xlink:href="#E1-MJMAIN-2212" x="3931" y="0"></use>
 <use xlink:href="#E1-MJMATHI-3B1" x="4932" y="0"></use>
<g transform="translate(5573,0)">
<g transform="translate(120,0)">
<rect stroke="none" width="4369" height="60" x="0" y="220"></rect>
<g transform="translate(827,740)">
 <use transform="scale(0.707)" xlink:href="#E1-MJMATHI-76" x="0" y="0"></use>
<g transform="translate(343,251)">
 <use transform="scale(0.574)" xlink:href="#E1-MJMAIN-63"></use>
 <use transform="scale(0.574)" xlink:href="#E1-MJMAIN-6F" x="444" y="0"></use>
 <use transform="scale(0.574)" xlink:href="#E1-MJMAIN-72" x="945" y="0"></use>
 <use transform="scale(0.574)" xlink:href="#E1-MJMAIN-72" x="1337" y="0"></use>
 <use transform="scale(0.574)" xlink:href="#E1-MJMAIN-65" x="1730" y="0"></use>
 <use transform="scale(0.574)" xlink:href="#E1-MJMAIN-63" x="2174" y="0"></use>
 <use transform="scale(0.574)" xlink:href="#E1-MJMAIN-74" x="2619" y="0"></use>
 <use transform="scale(0.574)" xlink:href="#E1-MJMAIN-65" x="3008" y="0"></use>
 <use transform="scale(0.574)" xlink:href="#E1-MJMAIN-64" x="3453" y="0"></use>
</g>
<g transform="translate(343,-283)">
 <use transform="scale(0.574)" xlink:href="#E1-MJMATHI-64" x="0" y="0"></use>
 <use transform="scale(0.574)" xlink:href="#E1-MJMATHI-57" x="523" y="0"></use>
</g>
</g>
<g transform="translate(60,-791)">
 <use transform="scale(0.707)" xlink:href="#E1-MJSZ2-221A" x="0" y="-16"></use>
<rect stroke="none" width="2704" height="42" x="707" y="760"></rect>
<g transform="translate(707,0)">
 <use transform="scale(0.707)" xlink:href="#E1-MJMATHI-73" x="0" y="0"></use>
<g transform="translate(331,251)">
 <use transform="scale(0.574)" xlink:href="#E1-MJMAIN-63"></use>
 <use transform="scale(0.574)" xlink:href="#E1-MJMAIN-6F" x="444" y="0"></use>
 <use transform="scale(0.574)" xlink:href="#E1-MJMAIN-72" x="945" y="0"></use>
 <use transform="scale(0.574)" xlink:href="#E1-MJMAIN-72" x="1337" y="0"></use>
 <use transform="scale(0.574)" xlink:href="#E1-MJMAIN-65" x="1730" y="0"></use>
 <use transform="scale(0.574)" xlink:href="#E1-MJMAIN-63" x="2174" y="0"></use>
 <use transform="scale(0.574)" xlink:href="#E1-MJMAIN-74" x="2619" y="0"></use>
 <use transform="scale(0.574)" xlink:href="#E1-MJMAIN-65" x="3008" y="0"></use>
 <use transform="scale(0.574)" xlink:href="#E1-MJMAIN-64" x="3453" y="0"></use>
</g>
<g transform="translate(331,-283)">
 <use transform="scale(0.574)" xlink:href="#E1-MJMATHI-64" x="0" y="0"></use>
 <use transform="scale(0.574)" xlink:href="#E1-MJMATHI-57" x="523" y="0"></use>
</g>
</g>
 <use transform="scale(0.707)" xlink:href="#E1-MJMAIN-2B" x="4825" y="0"></use>
 <use transform="scale(0.707)" xlink:href="#E1-MJMATHI-3F5" x="5603" y="0"></use>
</g>
</g>
</g>
</g>
<g transform="translate(0,-1338)">
 <use xlink:href="#E1-MJMATHI-62" x="0" y="0"></use>
<g transform="translate(707,0)">
 <use xlink:href="#E1-MJMAIN-3A"></use>
 <use xlink:href="#E1-MJMAIN-3D" x="278" y="0"></use>
</g>
 <use xlink:href="#E1-MJMATHI-62" x="2042" y="0"></use>
 <use xlink:href="#E1-MJMAIN-2212" x="2693" y="0"></use>
 <use xlink:href="#E1-MJMATHI-3B1" x="3694" y="0"></use>
<g transform="translate(4335,0)">
<g transform="translate(120,0)">
<rect stroke="none" width="4369" height="60" x="0" y="220"></rect>
<g transform="translate(827,734)">
 <use transform="scale(0.707)" xlink:href="#E1-MJMATHI-76" x="0" y="0"></use>
<g transform="translate(343,251)">
 <use transform="scale(0.574)" xlink:href="#E1-MJMAIN-63"></use>
 <use transform="scale(0.574)" xlink:href="#E1-MJMAIN-6F" x="444" y="0"></use>
 <use transform="scale(0.574)" xlink:href="#E1-MJMAIN-72" x="945" y="0"></use>
 <use transform="scale(0.574)" xlink:href="#E1-MJMAIN-72" x="1337" y="0"></use>
 <use transform="scale(0.574)" xlink:href="#E1-MJMAIN-65" x="1730" y="0"></use>
 <use transform="scale(0.574)" xlink:href="#E1-MJMAIN-63" x="2174" y="0"></use>
 <use transform="scale(0.574)" xlink:href="#E1-MJMAIN-74" x="2619" y="0"></use>
 <use transform="scale(0.574)" xlink:href="#E1-MJMAIN-65" x="3008" y="0"></use>
 <use transform="scale(0.574)" xlink:href="#E1-MJMAIN-64" x="3453" y="0"></use>
</g>
<g transform="translate(343,-283)">
 <use transform="scale(0.574)" xlink:href="#E1-MJMATHI-64" x="0" y="0"></use>
 <use transform="scale(0.574)" xlink:href="#E1-MJMATHI-62" x="523" y="0"></use>
</g>
</g>
<g transform="translate(60,-794)">
 <use transform="scale(0.707)" xlink:href="#E1-MJSZ2-221A" x="0" y="-11"></use>
<rect stroke="none" width="2704" height="42" x="707" y="763"></rect>
<g transform="translate(707,0)">
 <use transform="scale(0.707)" xlink:href="#E1-MJMATHI-73" x="0" y="0"></use>
<g transform="translate(331,251)">
 <use transform="scale(0.574)" xlink:href="#E1-MJMAIN-63"></use>
 <use transform="scale(0.574)" xlink:href="#E1-MJMAIN-6F" x="444" y="0"></use>
 <use transform="scale(0.574)" xlink:href="#E1-MJMAIN-72" x="945" y="0"></use>
 <use transform="scale(0.574)" xlink:href="#E1-MJMAIN-72" x="1337" y="0"></use>
 <use transform="scale(0.574)" xlink:href="#E1-MJMAIN-65" x="1730" y="0"></use>
 <use transform="scale(0.574)" xlink:href="#E1-MJMAIN-63" x="2174" y="0"></use>
 <use transform="scale(0.574)" xlink:href="#E1-MJMAIN-74" x="2619" y="0"></use>
 <use transform="scale(0.574)" xlink:href="#E1-MJMAIN-65" x="3008" y="0"></use>
 <use transform="scale(0.574)" xlink:href="#E1-MJMAIN-64" x="3453" y="0"></use>
</g>
<g transform="translate(331,-283)">
 <use transform="scale(0.574)" xlink:href="#E1-MJMATHI-64" x="0" y="0"></use>
 <use transform="scale(0.574)" xlink:href="#E1-MJMATHI-62" x="523" y="0"></use>
</g>
</g>
 <use transform="scale(0.707)" xlink:href="#E1-MJMAIN-2B" x="4825" y="0"></use>
 <use transform="scale(0.707)" xlink:href="#E1-MJMATHI-3F5" x="5603" y="0"></use>
</g>
</g>
</g>
</g>
</g>
</g>
</g>
</svg>