<svg xmlns:xlink="http://www.w3.org/1999/xlink" width="33.365ex" height="27.176ex" style="font-size: 15px; vertical-align: -13.005ex;" viewBox="0 -6101.5 14365.3 11700.7" role="img" focusable="false" xmlns="http://www.w3.org/2000/svg">
<defs>
<path stroke-width="1" id="E1-MJMATHI-76" d="M173 380Q173 405 154 405Q130 405 104 376T61 287Q60 286 59 284T58 281T56 279T53 278T49 278T41 278H27Q21 284 21 287Q21 294 29 316T53 368T97 419T160 441Q202 441 225 417T249 361Q249 344 246 335Q246 329 231 291T200 202T182 113Q182 86 187 69Q200 26 250 26Q287 26 319 60T369 139T398 222T409 277Q409 300 401 317T383 343T365 361T357 383Q357 405 376 424T417 443Q436 443 451 425T467 367Q467 340 455 284T418 159T347 40T241 -11Q177 -11 139 22Q102 54 102 117Q102 148 110 181T151 298Q173 362 173 380Z"></path>
<path stroke-width="1" id="E1-MJMATHI-64" d="M366 683Q367 683 438 688T511 694Q523 694 523 686Q523 679 450 384T375 83T374 68Q374 26 402 26Q411 27 422 35Q443 55 463 131Q469 151 473 152Q475 153 483 153H487H491Q506 153 506 145Q506 140 503 129Q490 79 473 48T445 8T417 -8Q409 -10 393 -10Q359 -10 336 5T306 36L300 51Q299 52 296 50Q294 48 292 46Q233 -10 172 -10Q117 -10 75 30T33 157Q33 205 53 255T101 341Q148 398 195 420T280 442Q336 442 364 400Q369 394 369 396Q370 400 396 505T424 616Q424 629 417 632T378 637H357Q351 643 351 645T353 664Q358 683 366 683ZM352 326Q329 405 277 405Q242 405 210 374T160 293Q131 214 119 129Q119 126 119 118T118 106Q118 61 136 44T179 26Q233 26 290 98L298 109L352 326Z"></path>
<path stroke-width="1" id="E1-MJMATHI-57" d="M436 683Q450 683 486 682T553 680Q604 680 638 681T677 682Q695 682 695 674Q695 670 692 659Q687 641 683 639T661 637Q636 636 621 632T600 624T597 615Q597 603 613 377T629 138L631 141Q633 144 637 151T649 170T666 200T690 241T720 295T759 362Q863 546 877 572T892 604Q892 619 873 628T831 637Q817 637 817 647Q817 650 819 660Q823 676 825 679T839 682Q842 682 856 682T895 682T949 681Q1015 681 1034 683Q1048 683 1048 672Q1048 666 1045 655T1038 640T1028 637Q1006 637 988 631T958 617T939 600T927 584L923 578L754 282Q586 -14 585 -15Q579 -22 561 -22Q546 -22 542 -17Q539 -14 523 229T506 480L494 462Q472 425 366 239Q222 -13 220 -15T215 -19Q210 -22 197 -22Q178 -22 176 -15Q176 -12 154 304T131 622Q129 631 121 633T82 637H58Q51 644 51 648Q52 671 64 683H76Q118 680 176 680Q301 680 313 683H323Q329 677 329 674T327 656Q322 641 318 637H297Q236 634 232 620Q262 160 266 136L501 550L499 587Q496 629 489 632Q483 636 447 637Q428 637 422 639T416 648Q416 650 418 660Q419 664 420 669T421 676T424 680T428 682T436 683Z"></path>
<path stroke-width="1" id="E1-MJMAIN-3D" d="M56 347Q56 360 70 367H707Q722 359 722 347Q722 336 708 328L390 327H72Q56 332 56 347ZM56 153Q56 168 72 173H708Q722 163 722 153Q722 140 707 133H70Q56 140 56 153Z"></path>
<path stroke-width="1" id="E1-MJMATHI-3B2" d="M29 -194Q23 -188 23 -186Q23 -183 102 134T186 465Q208 533 243 584T309 658Q365 705 429 705H431Q493 705 533 667T573 570Q573 465 469 396L482 383Q533 332 533 252Q533 139 448 65T257 -10Q227 -10 203 -2T165 17T143 40T131 59T126 65L62 -188Q60 -194 42 -194H29ZM353 431Q392 431 427 419L432 422Q436 426 439 429T449 439T461 453T472 471T484 495T493 524T501 560Q503 569 503 593Q503 611 502 616Q487 667 426 667Q384 667 347 643T286 582T247 514T224 455Q219 439 186 308T152 168Q151 163 151 147Q151 99 173 68Q204 26 260 26Q302 26 349 51T425 137Q441 171 449 214T457 279Q457 337 422 372Q380 358 347 358H337Q258 358 258 389Q258 396 261 403Q275 431 353 431Z"></path>
<path stroke-width="1" id="E1-MJMAIN-31" d="M213 578L200 573Q186 568 160 563T102 556H83V602H102Q149 604 189 617T245 641T273 663Q275 666 285 666Q294 666 302 660V361L303 61Q310 54 315 52T339 48T401 46H427V0H416Q395 3 257 3Q121 3 100 0H88V46H114Q136 46 152 46T177 47T193 50T201 52T207 57T213 61V578Z"></path>
<path stroke-width="1" id="E1-MJMAIN-2B" d="M56 237T56 250T70 270H369V420L370 570Q380 583 389 583Q402 583 409 568V270H707Q722 262 722 250T707 230H409V-68Q401 -82 391 -82H389H387Q375 -82 369 -68V230H70Q56 237 56 250Z"></path>
<path stroke-width="1" id="E1-MJMAIN-28" d="M94 250Q94 319 104 381T127 488T164 576T202 643T244 695T277 729T302 750H315H319Q333 750 333 741Q333 738 316 720T275 667T226 581T184 443T167 250T184 58T225 -81T274 -167T316 -220T333 -241Q333 -250 318 -250H315H302L274 -226Q180 -141 137 -14T94 250Z"></path>
<path stroke-width="1" id="E1-MJMAIN-2212" d="M84 237T84 250T98 270H679Q694 262 694 250T679 230H98Q84 237 84 250Z"></path>
<path stroke-width="1" id="E1-MJMAIN-29" d="M60 749L64 750Q69 750 74 750H86L114 726Q208 641 251 514T294 250Q294 182 284 119T261 12T224 -76T186 -143T145 -194T113 -227T90 -246Q87 -249 86 -250H74Q66 -250 63 -250T58 -247T55 -238Q56 -237 66 -225Q221 -64 221 250T66 725Q56 737 55 738Q55 746 60 749Z"></path>
<path stroke-width="1" id="E1-MJMATHI-62" d="M73 647Q73 657 77 670T89 683Q90 683 161 688T234 694Q246 694 246 685T212 542Q204 508 195 472T180 418L176 399Q176 396 182 402Q231 442 283 442Q345 442 383 396T422 280Q422 169 343 79T173 -11Q123 -11 82 27T40 150V159Q40 180 48 217T97 414Q147 611 147 623T109 637Q104 637 101 637H96Q86 637 83 637T76 640T73 647ZM336 325V331Q336 405 275 405Q258 405 240 397T207 376T181 352T163 330L157 322L136 236Q114 150 114 114Q114 66 138 42Q154 26 178 26Q211 26 245 58Q270 81 285 114T318 219Q336 291 336 325Z"></path>
<path stroke-width="1" id="E1-MJMATHI-63" d="M34 159Q34 268 120 355T306 442Q362 442 394 418T427 355Q427 326 408 306T360 285Q341 285 330 295T319 325T330 359T352 380T366 386H367Q367 388 361 392T340 400T306 404Q276 404 249 390Q228 381 206 359Q162 315 142 235T121 119Q121 73 147 50Q169 26 205 26H209Q321 26 394 111Q403 121 406 121Q410 121 419 112T429 98T420 83T391 55T346 25T282 0T202 -11Q127 -11 81 37T34 159Z"></path>
<path stroke-width="1" id="E1-MJMATHI-6F" d="M201 -11Q126 -11 80 38T34 156Q34 221 64 279T146 380Q222 441 301 441Q333 441 341 440Q354 437 367 433T402 417T438 387T464 338T476 268Q476 161 390 75T201 -11ZM121 120Q121 70 147 48T206 26Q250 26 289 58T351 142Q360 163 374 216T388 308Q388 352 370 375Q346 405 306 405Q243 405 195 347Q158 303 140 230T121 120Z"></path>
<path stroke-width="1" id="E1-MJMATHI-72" d="M21 287Q22 290 23 295T28 317T38 348T53 381T73 411T99 433T132 442Q161 442 183 430T214 408T225 388Q227 382 228 382T236 389Q284 441 347 441H350Q398 441 422 400Q430 381 430 363Q430 333 417 315T391 292T366 288Q346 288 334 299T322 328Q322 376 378 392Q356 405 342 405Q286 405 239 331Q229 315 224 298T190 165Q156 25 151 16Q138 -11 108 -11Q95 -11 87 -5T76 7T74 17Q74 30 114 189T154 366Q154 405 128 405Q107 405 92 377T68 316T57 280Q55 278 41 278H27Q21 284 21 287Z"></path>
<path stroke-width="1" id="E1-MJMATHI-65" d="M39 168Q39 225 58 272T107 350T174 402T244 433T307 442H310Q355 442 388 420T421 355Q421 265 310 237Q261 224 176 223Q139 223 138 221Q138 219 132 186T125 128Q125 81 146 54T209 26T302 45T394 111Q403 121 406 121Q410 121 419 112T429 98T420 82T390 55T344 24T281 -1T205 -11Q126 -11 83 42T39 168ZM373 353Q367 405 305 405Q272 405 244 391T199 357T170 316T154 280T149 261Q149 260 169 260Q282 260 327 284T373 353Z"></path>
<path stroke-width="1" id="E1-MJMATHI-74" d="M26 385Q19 392 19 395Q19 399 22 411T27 425Q29 430 36 430T87 431H140L159 511Q162 522 166 540T173 566T179 586T187 603T197 615T211 624T229 626Q247 625 254 615T261 596Q261 589 252 549T232 470L222 433Q222 431 272 431H323Q330 424 330 420Q330 398 317 385H210L174 240Q135 80 135 68Q135 26 162 26Q197 26 230 60T283 144Q285 150 288 151T303 153H307Q322 153 322 145Q322 142 319 133Q314 117 301 95T267 48T216 6T155 -11Q125 -11 98 4T59 56Q57 64 57 83V101L92 241Q127 382 128 383Q128 385 77 385H26Z"></path>
<path stroke-width="1" id="E1-MJMAIN-5B" d="M118 -250V750H255V710H158V-210H255V-250H118Z"></path>
<path stroke-width="1" id="E1-MJMATHI-6C" d="M117 59Q117 26 142 26Q179 26 205 131Q211 151 215 152Q217 153 225 153H229Q238 153 241 153T246 151T248 144Q247 138 245 128T234 90T214 43T183 6T137 -11Q101 -11 70 11T38 85Q38 97 39 102L104 360Q167 615 167 623Q167 626 166 628T162 632T157 634T149 635T141 636T132 637T122 637Q112 637 109 637T101 638T95 641T94 647Q94 649 96 661Q101 680 107 682T179 688Q194 689 213 690T243 693T254 694Q266 694 266 686Q266 675 193 386T118 83Q118 81 118 75T117 65V59Z"></path>
<path stroke-width="1" id="E1-MJMAIN-5D" d="M22 710V750H159V-250H22V-210H119V710H22Z"></path>
<path stroke-width="1" id="E1-MJMATHI-73" d="M131 289Q131 321 147 354T203 415T300 442Q362 442 390 415T419 355Q419 323 402 308T364 292Q351 292 340 300T328 326Q328 342 337 354T354 372T367 378Q368 378 368 379Q368 382 361 388T336 399T297 405Q249 405 227 379T204 326Q204 301 223 291T278 274T330 259Q396 230 396 163Q396 135 385 107T352 51T289 7T195 -10Q118 -10 86 19T53 87Q53 126 74 143T118 160Q133 160 146 151T160 120Q160 94 142 76T111 58Q109 57 108 57T107 55Q108 52 115 47T146 34T201 27Q237 27 263 38T301 66T318 97T323 122Q323 150 302 164T254 181T195 196T148 231Q131 256 131 289Z"></path>
<path stroke-width="1" id="E1-MJMAIN-32" d="M109 429Q82 429 66 447T50 491Q50 562 103 614T235 666Q326 666 387 610T449 465Q449 422 429 383T381 315T301 241Q265 210 201 149L142 93L218 92Q375 92 385 97Q392 99 409 186V189H449V186Q448 183 436 95T421 3V0H50V19V31Q50 38 56 46T86 81Q115 113 136 137Q145 147 170 174T204 211T233 244T261 278T284 308T305 340T320 369T333 401T340 431T343 464Q343 527 309 573T212 619Q179 619 154 602T119 569T109 550Q109 549 114 549Q132 549 151 535T170 489Q170 464 154 447T109 429Z"></path>
</defs>
<g stroke="currentColor" fill="currentColor" stroke-width="0" transform="matrix(1 0 0 -1 0 0)">
<g transform="translate(167,0)">
<g transform="translate(-11,0)">
<g transform="translate(0,5187)">
 <use xlink:href="#E1-MJMATHI-76" x="0" y="0"></use>
<g transform="translate(485,0)">
 <use xlink:href="#E1-MJMATHI-64" x="0" y="0"></use>
 <use xlink:href="#E1-MJMATHI-57" x="523" y="0"></use>
</g>
 <use xlink:href="#E1-MJMAIN-3D" x="2335" y="0"></use>
<g transform="translate(3391,0)">
 <use xlink:href="#E1-MJMATHI-3B2" x="0" y="0"></use>
 <use transform="scale(0.707)" xlink:href="#E1-MJMAIN-31" x="801" y="-213"></use>
</g>
 <use xlink:href="#E1-MJMATHI-76" x="4411" y="0"></use>
<g transform="translate(4897,0)">
 <use xlink:href="#E1-MJMATHI-64" x="0" y="0"></use>
 <use xlink:href="#E1-MJMATHI-57" x="523" y="0"></use>
</g>
 <use xlink:href="#E1-MJMAIN-2B" x="6691" y="0"></use>
 <use xlink:href="#E1-MJMAIN-28" x="7692" y="0"></use>
 <use xlink:href="#E1-MJMAIN-31" x="8081" y="0"></use>
 <use xlink:href="#E1-MJMAIN-2212" x="8804" y="0"></use>
 <use xlink:href="#E1-MJMATHI-3B2" x="9805" y="0"></use>
 <use xlink:href="#E1-MJMAIN-31" x="10378" y="0"></use>
 <use xlink:href="#E1-MJMAIN-29" x="10879" y="0"></use>
 <use xlink:href="#E1-MJMATHI-64" x="11268" y="0"></use>
 <use xlink:href="#E1-MJMATHI-57" x="11792" y="0"></use>
</g>
<g transform="translate(0,3836)">
 <use xlink:href="#E1-MJMATHI-76" x="0" y="0"></use>
<g transform="translate(485,-150)">
 <use transform="scale(0.707)" xlink:href="#E1-MJMATHI-64" x="0" y="0"></use>
 <use transform="scale(0.707)" xlink:href="#E1-MJMATHI-62" x="523" y="0"></use>
</g>
 <use xlink:href="#E1-MJMAIN-3D" x="1537" y="0"></use>
<g transform="translate(2593,0)">
 <use xlink:href="#E1-MJMATHI-3B2" x="0" y="0"></use>
 <use transform="scale(0.707)" xlink:href="#E1-MJMAIN-31" x="801" y="-213"></use>
</g>
<g transform="translate(3613,0)">
 <use xlink:href="#E1-MJMATHI-76" x="0" y="0"></use>
<g transform="translate(485,-150)">
 <use transform="scale(0.707)" xlink:href="#E1-MJMATHI-64" x="0" y="0"></use>
 <use transform="scale(0.707)" xlink:href="#E1-MJMATHI-62" x="523" y="0"></use>
</g>
</g>
 <use xlink:href="#E1-MJMAIN-2B" x="5095" y="0"></use>
<g transform="translate(6096,0)">
 <use xlink:href="#E1-MJMAIN-28" x="0" y="0"></use>
<g transform="translate(389,0)">
 <use xlink:href="#E1-MJMAIN-31" x="0" y="0"></use>
 <use xlink:href="#E1-MJMAIN-2212" x="722" y="0"></use>
<g transform="translate(1723,0)">
 <use xlink:href="#E1-MJMATHI-3B2" x="0" y="0"></use>
 <use transform="scale(0.707)" xlink:href="#E1-MJMAIN-31" x="801" y="-213"></use>
</g>
</g>
 <use xlink:href="#E1-MJMAIN-29" x="3133" y="0"></use>
</g>
 <use xlink:href="#E1-MJMATHI-64" x="9785" y="0"></use>
 <use xlink:href="#E1-MJMATHI-62" x="10309" y="0"></use>
</g>
<g transform="translate(0,1763)">
 <use xlink:href="#E1-MJMATHI-76" x="0" y="0"></use>
<g transform="translate(485,0)">
 <use xlink:href="#E1-MJMATHI-64" x="0" y="0"></use>
 <use xlink:href="#E1-MJMATHI-57" x="523" y="0"></use>
<g transform="translate(1603,421)">
 <use transform="scale(0.707)" xlink:href="#E1-MJMATHI-63" x="0" y="0"></use>
 <use transform="scale(0.707)" xlink:href="#E1-MJMATHI-6F" x="433" y="0"></use>
 <use transform="scale(0.707)" xlink:href="#E1-MJMATHI-72" x="919" y="0"></use>
 <use transform="scale(0.707)" xlink:href="#E1-MJMATHI-72" x="1370" y="0"></use>
 <use transform="scale(0.707)" xlink:href="#E1-MJMATHI-65" x="1822" y="0"></use>
 <use transform="scale(0.707)" xlink:href="#E1-MJMATHI-63" x="2288" y="0"></use>
 <use transform="scale(0.707)" xlink:href="#E1-MJMATHI-74" x="2722" y="0"></use>
 <use transform="scale(0.707)" xlink:href="#E1-MJMATHI-65" x="3083" y="0"></use>
 <use transform="scale(0.707)" xlink:href="#E1-MJMATHI-64" x="3550" y="0"></use>
</g>
</g>
 <use xlink:href="#E1-MJMAIN-5B" x="5069" y="0"></use>
 <use xlink:href="#E1-MJMATHI-6C" x="5347" y="0"></use>
 <use xlink:href="#E1-MJMAIN-5D" x="5646" y="0"></use>
 <use xlink:href="#E1-MJMAIN-3D" x="6202" y="0"></use>
<g transform="translate(6980,0)">
<g transform="translate(397,0)">
<rect stroke="none" width="4392" height="60" x="0" y="220"></rect>
<g transform="translate(739,770)">
 <use xlink:href="#E1-MJMATHI-76" x="0" y="0"></use>
<g transform="translate(485,0)">
 <use xlink:href="#E1-MJMATHI-64" x="0" y="0"></use>
 <use xlink:href="#E1-MJMATHI-57" x="523" y="0"></use>
</g>
 <use xlink:href="#E1-MJMAIN-5B" x="2057" y="0"></use>
 <use xlink:href="#E1-MJMATHI-6C" x="2336" y="0"></use>
 <use xlink:href="#E1-MJMAIN-5D" x="2634" y="0"></use>
</g>
<g transform="translate(60,-1029)">
 <use xlink:href="#E1-MJMAIN-31" x="0" y="0"></use>
 <use xlink:href="#E1-MJMAIN-2212" x="722" y="0"></use>
<g transform="translate(1723,0)">
 <use xlink:href="#E1-MJMAIN-28" x="0" y="0"></use>
<g transform="translate(389,0)">
 <use xlink:href="#E1-MJMATHI-3B2" x="0" y="0"></use>
 <use transform="scale(0.707)" xlink:href="#E1-MJMAIN-31" x="801" y="-213"></use>
</g>
 <use xlink:href="#E1-MJMAIN-29" x="1409" y="0"></use>
<g transform="translate(1799,477)">
 <use transform="scale(0.707)" xlink:href="#E1-MJMAIN-5B" x="0" y="0"></use>
 <use transform="scale(0.707)" xlink:href="#E1-MJMATHI-74" x="278" y="0"></use>
 <use transform="scale(0.707)" xlink:href="#E1-MJMAIN-5D" x="640" y="0"></use>
</g>
</g>
</g>
</g>
</g>
</g>
<g transform="translate(0,-700)">
 <use xlink:href="#E1-MJMATHI-73" x="0" y="0"></use>
<g transform="translate(469,0)">
 <use xlink:href="#E1-MJMATHI-64" x="0" y="0"></use>
 <use xlink:href="#E1-MJMATHI-57" x="523" y="0"></use>
</g>
 <use xlink:href="#E1-MJMAIN-3D" x="2319" y="0"></use>
<g transform="translate(3375,0)">
 <use xlink:href="#E1-MJMATHI-3B2" x="0" y="0"></use>
 <use transform="scale(0.707)" xlink:href="#E1-MJMAIN-32" x="801" y="-213"></use>
</g>
 <use xlink:href="#E1-MJMATHI-73" x="4395" y="0"></use>
<g transform="translate(4865,0)">
 <use xlink:href="#E1-MJMATHI-64" x="0" y="0"></use>
 <use xlink:href="#E1-MJMATHI-57" x="523" y="0"></use>
</g>
 <use xlink:href="#E1-MJMAIN-2B" x="6659" y="0"></use>
 <use xlink:href="#E1-MJMAIN-28" x="7660" y="0"></use>
 <use xlink:href="#E1-MJMAIN-31" x="8049" y="0"></use>
 <use xlink:href="#E1-MJMAIN-2212" x="8772" y="0"></use>
 <use xlink:href="#E1-MJMATHI-3B2" x="9773" y="0"></use>
 <use xlink:href="#E1-MJMAIN-32" x="10346" y="0"></use>
 <use xlink:href="#E1-MJMAIN-29" x="10847" y="0"></use>
 <use xlink:href="#E1-MJMAIN-28" x="11236" y="0"></use>
 <use xlink:href="#E1-MJMATHI-64" x="11626" y="0"></use>
 <use xlink:href="#E1-MJMATHI-57" x="12149" y="0"></use>
<g transform="translate(13198,0)">
 <use xlink:href="#E1-MJMAIN-29" x="0" y="0"></use>
 <use transform="scale(0.707)" xlink:href="#E1-MJMAIN-32" x="550" y="583"></use>
</g>
</g>
<g transform="translate(0,-2136)">
 <use xlink:href="#E1-MJMATHI-73" x="0" y="0"></use>
<g transform="translate(469,-150)">
 <use transform="scale(0.707)" xlink:href="#E1-MJMATHI-64" x="0" y="0"></use>
 <use transform="scale(0.707)" xlink:href="#E1-MJMATHI-62" x="523" y="0"></use>
</g>
 <use xlink:href="#E1-MJMAIN-3D" x="1521" y="0"></use>
<g transform="translate(2577,0)">
 <use xlink:href="#E1-MJMATHI-3B2" x="0" y="0"></use>
 <use transform="scale(0.707)" xlink:href="#E1-MJMAIN-32" x="801" y="-213"></use>
</g>
<g transform="translate(3597,0)">
 <use xlink:href="#E1-MJMATHI-73" x="0" y="0"></use>
<g transform="translate(469,-150)">
 <use transform="scale(0.707)" xlink:href="#E1-MJMATHI-64" x="0" y="0"></use>
 <use transform="scale(0.707)" xlink:href="#E1-MJMATHI-62" x="523" y="0"></use>
</g>
</g>
 <use xlink:href="#E1-MJMAIN-2B" x="5063" y="0"></use>
<g transform="translate(6064,0)">
 <use xlink:href="#E1-MJMAIN-28" x="0" y="0"></use>
<g transform="translate(389,0)">
 <use xlink:href="#E1-MJMAIN-31" x="0" y="0"></use>
 <use xlink:href="#E1-MJMAIN-2212" x="722" y="0"></use>
<g transform="translate(1723,0)">
 <use xlink:href="#E1-MJMATHI-3B2" x="0" y="0"></use>
 <use transform="scale(0.707)" xlink:href="#E1-MJMAIN-32" x="801" y="-213"></use>
</g>
</g>
 <use xlink:href="#E1-MJMAIN-29" x="3133" y="0"></use>
</g>
 <use xlink:href="#E1-MJMAIN-28" x="9753" y="0"></use>
 <use xlink:href="#E1-MJMATHI-64" x="10143" y="0"></use>
 <use xlink:href="#E1-MJMATHI-62" x="10666" y="0"></use>
<g transform="translate(11096,0)">
 <use xlink:href="#E1-MJMAIN-29" x="0" y="0"></use>
 <use transform="scale(0.707)" xlink:href="#E1-MJMAIN-32" x="550" y="583"></use>
</g>
</g>
<g transform="translate(0,-4208)">
 <use xlink:href="#E1-MJMATHI-73" x="0" y="0"></use>
<g transform="translate(469,353)">
 <use transform="scale(0.707)" xlink:href="#E1-MJMATHI-63" x="0" y="0"></use>
 <use transform="scale(0.707)" xlink:href="#E1-MJMATHI-6F" x="433" y="0"></use>
 <use transform="scale(0.707)" xlink:href="#E1-MJMATHI-72" x="919" y="0"></use>
 <use transform="scale(0.707)" xlink:href="#E1-MJMATHI-72" x="1370" y="0"></use>
 <use transform="scale(0.707)" xlink:href="#E1-MJMATHI-65" x="1822" y="0"></use>
 <use transform="scale(0.707)" xlink:href="#E1-MJMATHI-63" x="2288" y="0"></use>
 <use transform="scale(0.707)" xlink:href="#E1-MJMATHI-74" x="2722" y="0"></use>
 <use transform="scale(0.707)" xlink:href="#E1-MJMATHI-65" x="3083" y="0"></use>
 <use transform="scale(0.707)" xlink:href="#E1-MJMATHI-64" x="3550" y="0"></use>
</g>
<g transform="translate(469,-327)">
 <use transform="scale(0.707)" xlink:href="#E1-MJMATHI-64" x="0" y="0"></use>
 <use transform="scale(0.707)" xlink:href="#E1-MJMATHI-57" x="523" y="0"></use>
</g>
 <use xlink:href="#E1-MJMAIN-5B" x="3449" y="0"></use>
 <use xlink:href="#E1-MJMATHI-6C" x="3728" y="0"></use>
 <use xlink:href="#E1-MJMAIN-5D" x="4026" y="0"></use>
 <use xlink:href="#E1-MJMAIN-3D" x="4583" y="0"></use>
<g transform="translate(5361,0)">
<g transform="translate(397,0)">
<rect stroke="none" width="4392" height="60" x="0" y="220"></rect>
<g transform="translate(927,770)">
 <use xlink:href="#E1-MJMATHI-73" x="0" y="0"></use>
<g transform="translate(469,-150)">
 <use transform="scale(0.707)" xlink:href="#E1-MJMATHI-64" x="0" y="0"></use>
 <use transform="scale(0.707)" xlink:href="#E1-MJMATHI-57" x="523" y="0"></use>
</g>
 <use xlink:href="#E1-MJMAIN-5B" x="1681" y="0"></use>
 <use xlink:href="#E1-MJMATHI-6C" x="1959" y="0"></use>
 <use xlink:href="#E1-MJMAIN-5D" x="2258" y="0"></use>
</g>
<g transform="translate(60,-1029)">
 <use xlink:href="#E1-MJMAIN-31" x="0" y="0"></use>
 <use xlink:href="#E1-MJMAIN-2212" x="722" y="0"></use>
<g transform="translate(1723,0)">
 <use xlink:href="#E1-MJMAIN-28" x="0" y="0"></use>
<g transform="translate(389,0)">
 <use xlink:href="#E1-MJMATHI-3B2" x="0" y="0"></use>
 <use transform="scale(0.707)" xlink:href="#E1-MJMAIN-32" x="801" y="-213"></use>
</g>
 <use xlink:href="#E1-MJMAIN-29" x="1409" y="0"></use>
<g transform="translate(1799,477)">
 <use transform="scale(0.707)" xlink:href="#E1-MJMAIN-5B" x="0" y="0"></use>
 <use transform="scale(0.707)" xlink:href="#E1-MJMATHI-74" x="278" y="0"></use>
 <use transform="scale(0.707)" xlink:href="#E1-MJMAIN-5D" x="640" y="0"></use>
</g>
</g>
</g>
</g>
</g>
</g>
</g>
</g>
</g>
</svg>