<svg xmlns:xlink="http://www.w3.org/1999/xlink" width="28.851ex" height="15.176ex" style="font-size: 15px; vertical-align: -7.005ex;" viewBox="0 -3518.2 12421.9 6534.1" role="img" focusable="false" xmlns="http://www.w3.org/2000/svg">
<defs>
<path stroke-width="1" id="E1-MJMATHI-73" d="M131 289Q131 321 147 354T203 415T300 442Q362 442 390 415T419 355Q419 323 402 308T364 292Q351 292 340 300T328 326Q328 342 337 354T354 372T367 378Q368 378 368 379Q368 382 361 388T336 399T297 405Q249 405 227 379T204 326Q204 301 223 291T278 274T330 259Q396 230 396 163Q396 135 385 107T352 51T289 7T195 -10Q118 -10 86 19T53 87Q53 126 74 143T118 160Q133 160 146 151T160 120Q160 94 142 76T111 58Q109 57 108 57T107 55Q108 52 115 47T146 34T201 27Q237 27 263 38T301 66T318 97T323 122Q323 150 302 164T254 181T195 196T148 231Q131 256 131 289Z"></path>
<path stroke-width="1" id="E1-MJMATHI-64" d="M366 683Q367 683 438 688T511 694Q523 694 523 686Q523 679 450 384T375 83T374 68Q374 26 402 26Q411 27 422 35Q443 55 463 131Q469 151 473 152Q475 153 483 153H487H491Q506 153 506 145Q506 140 503 129Q490 79 473 48T445 8T417 -8Q409 -10 393 -10Q359 -10 336 5T306 36L300 51Q299 52 296 50Q294 48 292 46Q233 -10 172 -10Q117 -10 75 30T33 157Q33 205 53 255T101 341Q148 398 195 420T280 442Q336 442 364 400Q369 394 369 396Q370 400 396 505T424 616Q424 629 417 632T378 637H357Q351 643 351 645T353 664Q358 683 366 683ZM352 326Q329 405 277 405Q242 405 210 374T160 293Q131 214 119 129Q119 126 119 118T118 106Q118 61 136 44T179 26Q233 26 290 98L298 109L352 326Z"></path>
<path stroke-width="1" id="E1-MJMATHI-77" d="M580 385Q580 406 599 424T641 443Q659 443 674 425T690 368Q690 339 671 253Q656 197 644 161T609 80T554 12T482 -11Q438 -11 404 5T355 48Q354 47 352 44Q311 -11 252 -11Q226 -11 202 -5T155 14T118 53T104 116Q104 170 138 262T173 379Q173 380 173 381Q173 390 173 393T169 400T158 404H154Q131 404 112 385T82 344T65 302T57 280Q55 278 41 278H27Q21 284 21 287Q21 293 29 315T52 366T96 418T161 441Q204 441 227 416T250 358Q250 340 217 250T184 111Q184 65 205 46T258 26Q301 26 334 87L339 96V119Q339 122 339 128T340 136T341 143T342 152T345 165T348 182T354 206T362 238T373 281Q402 395 406 404Q419 431 449 431Q468 431 475 421T483 402Q483 389 454 274T422 142Q420 131 420 107V100Q420 85 423 71T442 42T487 26Q558 26 600 148Q609 171 620 213T632 273Q632 306 619 325T593 357T580 385Z"></path>
<path stroke-width="1" id="E1-MJMAIN-3D" d="M56 347Q56 360 70 367H707Q722 359 722 347Q722 336 708 328L390 327H72Q56 332 56 347ZM56 153Q56 168 72 173H708Q722 163 722 153Q722 140 707 133H70Q56 140 56 153Z"></path>
<path stroke-width="1" id="E1-MJMATHI-3B2" d="M29 -194Q23 -188 23 -186Q23 -183 102 134T186 465Q208 533 243 584T309 658Q365 705 429 705H431Q493 705 533 667T573 570Q573 465 469 396L482 383Q533 332 533 252Q533 139 448 65T257 -10Q227 -10 203 -2T165 17T143 40T131 59T126 65L62 -188Q60 -194 42 -194H29ZM353 431Q392 431 427 419L432 422Q436 426 439 429T449 439T461 453T472 471T484 495T493 524T501 560Q503 569 503 593Q503 611 502 616Q487 667 426 667Q384 667 347 643T286 582T247 514T224 455Q219 439 186 308T152 168Q151 163 151 147Q151 99 173 68Q204 26 260 26Q302 26 349 51T425 137Q441 171 449 214T457 279Q457 337 422 372Q380 358 347 358H337Q258 358 258 389Q258 396 261 403Q275 431 353 431Z"></path>
<path stroke-width="1" id="E1-MJMAIN-2B" d="M56 237T56 250T70 270H369V420L370 570Q380 583 389 583Q402 583 409 568V270H707Q722 262 722 250T707 230H409V-68Q401 -82 391 -82H389H387Q375 -82 369 -68V230H70Q56 237 56 250Z"></path>
<path stroke-width="1" id="E1-MJMAIN-28" d="M94 250Q94 319 104 381T127 488T164 576T202 643T244 695T277 729T302 750H315H319Q333 750 333 741Q333 738 316 720T275 667T226 581T184 443T167 250T184 58T225 -81T274 -167T316 -220T333 -241Q333 -250 318 -250H315H302L274 -226Q180 -141 137 -14T94 250Z"></path>
<path stroke-width="1" id="E1-MJMAIN-31" d="M213 578L200 573Q186 568 160 563T102 556H83V602H102Q149 604 189 617T245 641T273 663Q275 666 285 666Q294 666 302 660V361L303 61Q310 54 315 52T339 48T401 46H427V0H416Q395 3 257 3Q121 3 100 0H88V46H114Q136 46 152 46T177 47T193 50T201 52T207 57T213 61V578Z"></path>
<path stroke-width="1" id="E1-MJMAIN-2212" d="M84 237T84 250T98 270H679Q694 262 694 250T679 230H98Q84 237 84 250Z"></path>
<path stroke-width="1" id="E1-MJMAIN-29" d="M60 749L64 750Q69 750 74 750H86L114 726Q208 641 251 514T294 250Q294 182 284 119T261 12T224 -76T186 -143T145 -194T113 -227T90 -246Q87 -249 86 -250H74Q66 -250 63 -250T58 -247T55 -238Q56 -237 66 -225Q221 -64 221 250T66 725Q56 737 55 738Q55 746 60 749Z"></path>
<path stroke-width="1" id="E1-MJMAIN-32" d="M109 429Q82 429 66 447T50 491Q50 562 103 614T235 666Q326 666 387 610T449 465Q449 422 429 383T381 315T301 241Q265 210 201 149L142 93L218 92Q375 92 385 97Q392 99 409 186V189H449V186Q448 183 436 95T421 3V0H50V19V31Q50 38 56 46T86 81Q115 113 136 137Q145 147 170 174T204 211T233 244T261 278T284 308T305 340T320 369T333 401T340 431T343 464Q343 527 309 573T212 619Q179 619 154 602T119 569T109 550Q109 549 114 549Q132 549 151 535T170 489Q170 464 154 447T109 429Z"></path>
<path stroke-width="1" id="E1-MJMATHI-62" d="M73 647Q73 657 77 670T89 683Q90 683 161 688T234 694Q246 694 246 685T212 542Q204 508 195 472T180 418L176 399Q176 396 182 402Q231 442 283 442Q345 442 383 396T422 280Q422 169 343 79T173 -11Q123 -11 82 27T40 150V159Q40 180 48 217T97 414Q147 611 147 623T109 637Q104 637 101 637H96Q86 637 83 637T76 640T73 647ZM336 325V331Q336 405 275 405Q258 405 240 397T207 376T181 352T163 330L157 322L136 236Q114 150 114 114Q114 66 138 42Q154 26 178 26Q211 26 245 58Q270 81 285 114T318 219Q336 291 336 325Z"></path>
<path stroke-width="1" id="E1-MJMAIN-3A" d="M78 370Q78 394 95 412T138 430Q162 430 180 414T199 371Q199 346 182 328T139 310T96 327T78 370ZM78 60Q78 84 95 102T138 120Q162 120 180 104T199 61Q199 36 182 18T139 0T96 17T78 60Z"></path>
<path stroke-width="1" id="E1-MJMATHI-3B1" d="M34 156Q34 270 120 356T309 442Q379 442 421 402T478 304Q484 275 485 237V208Q534 282 560 374Q564 388 566 390T582 393Q603 393 603 385Q603 376 594 346T558 261T497 161L486 147L487 123Q489 67 495 47T514 26Q528 28 540 37T557 60Q559 67 562 68T577 70Q597 70 597 62Q597 56 591 43Q579 19 556 5T512 -10H505Q438 -10 414 62L411 69L400 61Q390 53 370 41T325 18T267 -2T203 -11Q124 -11 79 39T34 156ZM208 26Q257 26 306 47T379 90L403 112Q401 255 396 290Q382 405 304 405Q235 405 183 332Q156 292 139 224T121 120Q121 71 146 49T208 26Z"></path>
<path stroke-width="1" id="E1-MJMATHI-3F5" d="M227 -11Q149 -11 95 41T40 174Q40 262 87 322Q121 367 173 396T287 430Q289 431 329 431H367Q382 426 382 411Q382 385 341 385H325H312Q191 385 154 277L150 265H327Q340 256 340 246Q340 228 320 219H138V217Q128 187 128 143Q128 77 160 52T231 26Q258 26 284 36T326 57T343 68Q350 68 354 58T358 39Q358 36 357 35Q354 31 337 21T289 0T227 -11Z"></path>
<path stroke-width="1" id="E1-MJMAIN-221A" d="M95 178Q89 178 81 186T72 200T103 230T169 280T207 309Q209 311 212 311H213Q219 311 227 294T281 177Q300 134 312 108L397 -77Q398 -77 501 136T707 565T814 786Q820 800 834 800Q841 800 846 794T853 782V776L620 293L385 -193Q381 -200 366 -200Q357 -200 354 -197Q352 -195 256 15L160 225L144 214Q129 202 113 190T95 178Z"></path>
</defs>
<g stroke="currentColor" fill="currentColor" stroke-width="0" transform="matrix(1 0 0 -1 0 0)">
<g transform="translate(167,0)">
<g transform="translate(-11,0)">
<g transform="translate(0,2596)">
 <use xlink:href="#E1-MJMATHI-73" x="0" y="0"></use>
 <use xlink:href="#E1-MJMATHI-64" x="469" y="0"></use>
 <use xlink:href="#E1-MJMATHI-77" x="993" y="0"></use>
 <use xlink:href="#E1-MJMAIN-3D" x="1987" y="0"></use>
 <use xlink:href="#E1-MJMATHI-3B2" x="3043" y="0"></use>
 <use xlink:href="#E1-MJMATHI-73" x="3617" y="0"></use>
 <use xlink:href="#E1-MJMATHI-64" x="4086" y="0"></use>
 <use xlink:href="#E1-MJMATHI-77" x="4610" y="0"></use>
 <use xlink:href="#E1-MJMAIN-2B" x="5548" y="0"></use>
 <use xlink:href="#E1-MJMAIN-28" x="6549" y="0"></use>
 <use xlink:href="#E1-MJMAIN-31" x="6939" y="0"></use>
 <use xlink:href="#E1-MJMAIN-2212" x="7661" y="0"></use>
 <use xlink:href="#E1-MJMATHI-3B2" x="8662" y="0"></use>
 <use xlink:href="#E1-MJMAIN-29" x="9235" y="0"></use>
 <use xlink:href="#E1-MJMAIN-28" x="9625" y="0"></use>
 <use xlink:href="#E1-MJMATHI-64" x="10014" y="0"></use>
 <use xlink:href="#E1-MJMATHI-77" x="10538" y="0"></use>
<g transform="translate(11254,0)">
 <use xlink:href="#E1-MJMAIN-29" x="0" y="0"></use>
 <use transform="scale(0.707)" xlink:href="#E1-MJMAIN-32" x="550" y="513"></use>
</g>
</g>
<g transform="translate(0,1110)">
 <use xlink:href="#E1-MJMATHI-73" x="0" y="0"></use>
 <use xlink:href="#E1-MJMATHI-64" x="469" y="0"></use>
 <use xlink:href="#E1-MJMATHI-62" x="993" y="0"></use>
 <use xlink:href="#E1-MJMAIN-3D" x="1700" y="0"></use>
 <use xlink:href="#E1-MJMATHI-3B2" x="2756" y="0"></use>
 <use xlink:href="#E1-MJMATHI-73" x="3330" y="0"></use>
 <use xlink:href="#E1-MJMATHI-64" x="3799" y="0"></use>
 <use xlink:href="#E1-MJMATHI-62" x="4323" y="0"></use>
 <use xlink:href="#E1-MJMAIN-2B" x="4974" y="0"></use>
 <use xlink:href="#E1-MJMAIN-28" x="5975" y="0"></use>
 <use xlink:href="#E1-MJMAIN-31" x="6365" y="0"></use>
 <use xlink:href="#E1-MJMAIN-2212" x="7087" y="0"></use>
 <use xlink:href="#E1-MJMATHI-3B2" x="8088" y="0"></use>
 <use xlink:href="#E1-MJMAIN-29" x="8661" y="0"></use>
 <use xlink:href="#E1-MJMAIN-28" x="9051" y="0"></use>
 <use xlink:href="#E1-MJMATHI-64" x="9440" y="0"></use>
 <use xlink:href="#E1-MJMATHI-62" x="9964" y="0"></use>
<g transform="translate(10393,0)">
 <use xlink:href="#E1-MJMAIN-29" x="0" y="0"></use>
 <use transform="scale(0.707)" xlink:href="#E1-MJMAIN-32" x="550" y="513"></use>
</g>
</g>
<g transform="translate(0,-341)">
 <use xlink:href="#E1-MJMATHI-77" x="0" y="0"></use>
<g transform="translate(994,0)">
 <use xlink:href="#E1-MJMAIN-3A"></use>
 <use xlink:href="#E1-MJMAIN-3D" x="278" y="0"></use>
</g>
 <use xlink:href="#E1-MJMATHI-77" x="2329" y="0"></use>
 <use xlink:href="#E1-MJMAIN-2212" x="3267" y="0"></use>
<g transform="translate(4046,0)">
<g transform="translate(342,0)">
<rect stroke="none" width="2756" height="60" x="0" y="220"></rect>
 <use transform="scale(0.707)" xlink:href="#E1-MJMATHI-3B1" x="1628" y="640"></use>
<g transform="translate(60,-547)">
 <use transform="scale(0.707)" xlink:href="#E1-MJMAIN-221A" x="0" y="-11"></use>
<rect stroke="none" width="2046" height="42" x="589" y="516"></rect>
<g transform="translate(589,0)">
 <use transform="scale(0.707)" xlink:href="#E1-MJMATHI-73" x="0" y="0"></use>
 <use transform="scale(0.707)" xlink:href="#E1-MJMATHI-64" x="469" y="0"></use>
 <use transform="scale(0.707)" xlink:href="#E1-MJMATHI-77" x="993" y="0"></use>
 <use transform="scale(0.707)" xlink:href="#E1-MJMAIN-2B" x="1709" y="0"></use>
 <use transform="scale(0.707)" xlink:href="#E1-MJMATHI-3F5" x="2488" y="0"></use>
</g>
</g>
</g>
</g>
 <use xlink:href="#E1-MJMATHI-64" x="7264" y="0"></use>
 <use xlink:href="#E1-MJMATHI-77" x="7788" y="0"></use>
</g>
<g transform="translate(0,-2236)">
 <use xlink:href="#E1-MJMATHI-62" x="0" y="0"></use>
<g transform="translate(707,0)">
 <use xlink:href="#E1-MJMAIN-3A"></use>
 <use xlink:href="#E1-MJMAIN-3D" x="278" y="0"></use>
</g>
 <use xlink:href="#E1-MJMATHI-62" x="2042" y="0"></use>
 <use xlink:href="#E1-MJMAIN-2212" x="2693" y="0"></use>
<g transform="translate(3472,0)">
<g transform="translate(342,0)">
<rect stroke="none" width="2553" height="60" x="0" y="220"></rect>
 <use transform="scale(0.707)" xlink:href="#E1-MJMATHI-3B1" x="1485" y="640"></use>
<g transform="translate(60,-547)">
 <use transform="scale(0.707)" xlink:href="#E1-MJMAIN-221A" x="0" y="-11"></use>
<rect stroke="none" width="1843" height="42" x="589" y="516"></rect>
<g transform="translate(589,0)">
 <use transform="scale(0.707)" xlink:href="#E1-MJMATHI-73" x="0" y="0"></use>
 <use transform="scale(0.707)" xlink:href="#E1-MJMATHI-64" x="469" y="0"></use>
 <use transform="scale(0.707)" xlink:href="#E1-MJMATHI-62" x="993" y="0"></use>
 <use transform="scale(0.707)" xlink:href="#E1-MJMAIN-2B" x="1422" y="0"></use>
 <use transform="scale(0.707)" xlink:href="#E1-MJMATHI-3F5" x="2201" y="0"></use>
</g>
</g>
</g>
</g>
 <use xlink:href="#E1-MJMATHI-64" x="6487" y="0"></use>
 <use xlink:href="#E1-MJMATHI-62" x="7011" y="0"></use>
</g>
</g>
</g>
</g>
</svg>